<?xml version="1.0" encoding="utf-8"?>
<!-- Svg Vector Icons : http://www.onlinewebfonts.com/icon -->
<!DOCTYPE svg PUBLIC "-//W3C//DTD SVG 1.1//EN" "http://www.w3.org/Graphics/SVG/1.1/DTD/svg11.dtd">
<svg version="1.1" xmlns="http://www.w3.org/2000/svg" xmlns:xlink="http://www.w3.org/1999/xlink" x="0px" y="0px" viewBox="0 0 1000 1000" enable-background="new 0 0 1000 1000" xml:space="preserve">
<metadata> Svg Vector Icons : http://www.onlinewebfonts.com/icon </metadata>
<g><path d="M763.1,385.9c-56.5,0-107.3,23.5-143.4,61.9c-15.3,16.2-41.9,35.5-70.6,52.5c13.5-51.5,56.2-116.5,85.8-144.9c37.9-36.5,61.2-87.9,61.2-145c0-110-87.6-199.2-196-200.3c-108.4,1.2-196,90.4-196,200.3c0,57.1,23.3,108.5,61.2,145c29.6,28.5,72.3,93.4,85.8,144.9c-28.8-16.9-55.3-36.2-70.6-52.5c-36.1-38.4-86.9-61.9-143.4-61.9c-109.5,0-198.2,89.6-198.2,200.3c0,110.7,88.7,200.4,198.2,200.4c56.5,0,107.3-24.3,143.4-62.6c16.1-17.1,44.5-38.4,74.9-56.1C452.4,809.2,385,913,316.2,953.9V990h367.5v-36.1C615.1,913,547.6,809.2,544.7,667.8c30.5,17.7,58.8,39,74.9,56.1c36.1,38.4,86.9,62.6,143.4,62.6c109.5,0,198.2-89.7,198.2-200.4C961.2,475.5,872.5,385.9,763.1,385.9L763.1,385.9z"/></g>
</svg>